{
	"asset":{
		"generator":"Khronos glTF Blender I/O v4.0.44",
		"version":"2.0"
	},
	"scene":0,
	"scenes":[
		{
			"name":"Scene",
			"nodes":[
				0,
				1,
				2
			]
		}
	],
	"nodes":[
		{
			"name":"PUSHILIN_Plane_Circle.000",
			"rotation":[
				0,
				0.2974798381328583,
				0,
				0.9547281265258789
			],
			"scale":[
				17.453577041625977,
				17.453577041625977,
				17.453577041625977
			],
			"translation":[
				0,
				-0.00366036593914032,
				-9.127008438110352
			]
		},
		{
			"mesh":0,
			"name":"PUSHILIN_Plane_Circle.001",
			"rotation":[
				0,
				0.2974798381328583,
				0,
				0.9547281265258789
			],
			"scale":[
				17.453577041625977,
				17.453577041625977,
				17.453577041625977
			],
			"translation":[
				0,
				-0.00366036593914032,
				-9.127008438110352
			]
		},
		{
			"mesh":1,
			"name":"PUSHILIN_Plane_Circle.002",
			"rotation":[
				0,
				0.2974798381328583,
				0,
				0.9547281265258789
			],
			"scale":[
				17.453577041625977,
				17.453577041625977,
				17.453577041625977
			],
			"translation":[
				0,
				-0.00366036593914032,
				-9.127008438110352
			]
		}
	],
	"materials":[
		{
			"name":"plane",
			"pbrMetallicRoughness":{
				"baseColorTexture":{
					"index":0
				},
				"metallicFactor":0,
				"roughnessFactor":0.9039215445518494
			}
		}
	],
	"meshes":[
		{
			"name":"PUSHILIN_Plane_Circle.000-Mesh.001",
			"primitives":[
				{
					"attributes":{
						"POSITION":0,
						"NORMAL":1,
						"TEXCOORD_0":2
					},
					"indices":3,
					"material":0
				}
			]
		},
		{
			"name":"PUSHILIN_Plane_Circle.000-Mesh.002",
			"primitives":[
				{
					"attributes":{
						"POSITION":4,
						"NORMAL":5,
						"TEXCOORD_0":6
					},
					"indices":7,
					"material":0
				}
			]
		}
	],
	"textures":[
		{
			"sampler":0,
			"source":0
		}
	],
	"images":[
		{
			"mimeType":"image/png",
			"name":"PUSHILIN_PLANE",
			"uri":"PUSHILIN_PLANE.png"
		}
	],
	"accessors":[
		{
			"bufferView":0,
			"componentType":5126,
			"count":3478,
			"max":[
				1.2133740186691284,
				0.6046370267868042,
				1.8883689641952515
			],
			"min":[
				-1.2133740186691284,
				-0.6046370267868042,
				-1.8883689641952515
			],
			"type":"VEC3"
		},
		{
			"bufferView":1,
			"componentType":5126,
			"count":3478,
			"type":"VEC3"
		},
		{
			"bufferView":2,
			"componentType":5126,
			"count":3478,
			"type":"VEC2"
		},
		{
			"bufferView":3,
			"componentType":5123,
			"count":5286,
			"type":"SCALAR"
		},
		{
			"bufferView":4,
			"componentType":5126,
			"count":16,
			"max":[
				1.1809929609298706,
				0.6046370267868042,
				0.6003770232200623
			],
			"min":[
				0.9419260025024414,
				-0.14677999913692474,
				-0.5997390151023865
			],
			"type":"VEC3"
		},
		{
			"bufferView":5,
			"componentType":5126,
			"count":16,
			"type":"VEC3"
		},
		{
			"bufferView":6,
			"componentType":5126,
			"count":16,
			"type":"VEC2"
		},
		{
			"bufferView":7,
			"componentType":5123,
			"count":24,
			"type":"SCALAR"
		}
	],
	"bufferViews":[
		{
			"buffer":0,
			"byteLength":41736,
			"byteOffset":0,
			"target":34962
		},
		{
			"buffer":0,
			"byteLength":41736,
			"byteOffset":41736,
			"target":34962
		},
		{
			"buffer":0,
			"byteLength":27824,
			"byteOffset":83472,
			"target":34962
		},
		{
			"buffer":0,
			"byteLength":10572,
			"byteOffset":111296,
			"target":34963
		},
		{
			"buffer":0,
			"byteLength":192,
			"byteOffset":121868,
			"target":34962
		},
		{
			"buffer":0,
			"byteLength":192,
			"byteOffset":122060,
			"target":34962
		},
		{
			"buffer":0,
			"byteLength":128,
			"byteOffset":122252,
			"target":34962
		},
		{
			"buffer":0,
			"byteLength":48,
			"byteOffset":122380,
			"target":34963
		}
	],
	"samplers":[
		{
			"magFilter":9729,
			"minFilter":9987
		}
	],
	"buffers":[
		{
			"byteLength":122428,
			"uri":"AirPlane_1.bin"
		}
	]
}
