{
	"asset":{
		"generator":"Khronos glTF Blender I/O v4.0.44",
		"version":"2.0"
	},
	"scene":0,
	"scenes":[
		{
			"name":"Scene",
			"nodes":[
				0
			]
		}
	],
	"nodes":[
		{
			"mesh":0,
			"name":"Mball.001"
		}
	],
	"meshes":[
		{
			"name":"Mesh",
			"primitives":[
				{
					"attributes":{
						"POSITION":0,
						"NORMAL":1
					},
					"indices":2
				}
			]
		}
	],
	"accessors":[
		{
			"bufferView":0,
			"componentType":5126,
			"count":23866,
			"max":[
				4.053647994995117,
				3.5469932556152344,
				3.1316003799438477
			],
			"min":[
				-5.039763450622559,
				-2.6875572204589844,
				-4.371705532073975
			],
			"type":"VEC3"
		},
		{
			"bufferView":1,
			"componentType":5126,
			"count":23866,
			"type":"VEC3"
		},
		{
			"bufferView":2,
			"componentType":5123,
			"count":143184,
			"type":"SCALAR"
		}
	],
	"bufferViews":[
		{
			"buffer":0,
			"byteLength":286392,
			"byteOffset":0,
			"target":34962
		},
		{
			"buffer":0,
			"byteLength":286392,
			"byteOffset":286392,
			"target":34962
		},
		{
			"buffer":0,
			"byteLength":286368,
			"byteOffset":572784,
			"target":34963
		}
	],
	"buffers":[
		{
			"byteLength":859152,
			"uri":"clouds.bin"
		}
	]
}
