{
	"asset":{
		"generator":"Khronos glTF Blender I/O v4.0.44",
		"version":"2.0"
	},
	"scene":0,
	"scenes":[
		{
			"name":"Scene",
			"nodes":[
				0
			]
		}
	],
	"nodes":[
		{
			"mesh":0,
			"name":"Node"
		}
	],
	"materials":[
		{
			"name":"lambert2SG",
			"pbrMetallicRoughness":{
				"metallicFactor":0
			}
		}
	],
	"meshes":[
		{
			"name":"Node-Mesh",
			"primitives":[
				{
					"attributes":{
						"POSITION":0,
						"NORMAL":1
					},
					"indices":2,
					"material":0
				}
			]
		}
	],
	"accessors":[
		{
			"bufferView":0,
			"componentType":5126,
			"count":1806,
			"max":[
				3.015399932861328,
				1.2118220329284668,
				1.010754942893982
			],
			"min":[
				-2.8049209117889404,
				-0.8922200202941895,
				-0.8368819952011108
			],
			"type":"VEC3"
		},
		{
			"bufferView":1,
			"componentType":5126,
			"count":1806,
			"type":"VEC3"
		},
		{
			"bufferView":2,
			"componentType":5123,
			"count":1806,
			"type":"SCALAR"
		}
	],
	"bufferViews":[
		{
			"buffer":0,
			"byteLength":21672,
			"byteOffset":0,
			"target":34962
		},
		{
			"buffer":0,
			"byteLength":21672,
			"byteOffset":21672,
			"target":34962
		},
		{
			"buffer":0,
			"byteLength":3612,
			"byteOffset":43344,
			"target":34963
		}
	],
	"buffers":[
		{
			"byteLength":46956,
			"uri":"cloud1.bin"
		}
	]
}
