{
	"asset":{
		"generator":"Khronos glTF Blender I/O v4.0.44",
		"version":"2.0"
	},
	"scene":0,
	"scenes":[
		{
			"name":"Scene",
			"nodes":[
				0
			]
		}
	],
	"nodes":[
		{
			"mesh":0,
			"name":"Mball.001"
		}
	],
	"materials":[
		{
			"doubleSided":true,
			"name":"Material",
			"pbrMetallicRoughness":{
				"baseColorFactor":[
					0.800000011920929,
					0.800000011920929,
					0.800000011920929,
					1
				],
				"metallicFactor":0,
				"roughnessFactor":0.5
			}
		}
	],
	"meshes":[
		{
			"name":"Mesh",
			"primitives":[
				{
					"attributes":{
						"POSITION":0,
						"NORMAL":1
					},
					"indices":2,
					"material":0
				}
			]
		}
	],
	"accessors":[
		{
			"bufferView":0,
			"componentType":5126,
			"count":18510,
			"max":[
				3.058464527130127,
				3.23614501953125,
				3.729034185409546
			],
			"min":[
				-2.2785048484802246,
				-2.4533114433288574,
				-5.856462001800537
			],
			"type":"VEC3"
		},
		{
			"bufferView":1,
			"componentType":5126,
			"count":18510,
			"type":"VEC3"
		},
		{
			"bufferView":2,
			"componentType":5123,
			"count":111048,
			"type":"SCALAR"
		}
	],
	"bufferViews":[
		{
			"buffer":0,
			"byteLength":222120,
			"byteOffset":0,
			"target":34962
		},
		{
			"buffer":0,
			"byteLength":222120,
			"byteOffset":222120,
			"target":34962
		},
		{
			"buffer":0,
			"byteLength":222096,
			"byteOffset":444240,
			"target":34963
		}
	],
	"buffers":[
		{
			"byteLength":666336,
			"uri":"cloudmodal.bin"
		}
	]
}
